# xmcd
#
# Track frame offsets:
#       150
#       56021
#       95692
#       140665
#       172884
#       204767
#       230306
#
# Disc length: 3702 seconds
#
# Revision: 0
# Processed by: cddbd v1.5.1PL0 Copyright (c) Steve Scherf et al.
# Submitted via: WaveLab 4.01
#
DISCID=570e7407
DTITLE=Juri Rytchëu - Wenn die Wale fortziehen 2
DYEAR=2004
DGENRE=audiobook
TTITLE0=21 Giwu war schon sehr alt
TTITLE1=22 Ja das war ein wirklicher Mensch
TTITLE2=23 Die Sonne trat ihren Weg zurück zum Horizont an
TTITLE3=24 Die Menschen merkten, wie sehr die alte Nau sich verändert hatte
TTITLE4=25 Freudig empfimg man Armagirgin
TTITLE5=26 Zum Frühjahr hin wurde es ganz erbärmlich auf dem Kap der Kiesel
TTITLE6=27 Unterdessen neigte sich der Sommer seinem Ende zu
EXTD=
EXTT0=
EXTT1=
EXTT2=
EXTT3=
EXTT4=
EXTT5=
EXTT6=
PLAYORDER=
